<mxfile host="app.diagrams.net" agent="Mozilla/5.0 (Macintosh; Intel Mac OS X 10.15; rv:128.0) Gecko/20100101 Firefox/128.0" version="26.0.6">
  <diagram name="Page-1" id="IOWwbiNo-7pfZ61lQdIz">
    <mxGraphModel dx="1026" dy="685" grid="0" gridSize="10" guides="1" tooltips="1" connect="1" arrows="1" fold="1" page="0" pageScale="1" pageWidth="850" pageHeight="1100" math="0" shadow="0">
      <root>
        <mxCell id="0" />
        <mxCell id="1" parent="0" />
        <mxCell id="ceFJaeODxGJ1l_pFlYZ3-1" value="" style="endArrow=none;html=1;rounded=0;" edge="1" parent="1" source="ceFJaeODxGJ1l_pFlYZ3-12">
          <mxGeometry width="50" height="50" relative="1" as="geometry">
            <mxPoint x="96" y="666" as="sourcePoint" />
            <mxPoint x="93" y="106" as="targetPoint" />
          </mxGeometry>
        </mxCell>
        <mxCell id="ceFJaeODxGJ1l_pFlYZ3-2" value="" style="endArrow=none;html=1;rounded=0;" edge="1" parent="1" source="ceFJaeODxGJ1l_pFlYZ3-93">
          <mxGeometry width="50" height="50" relative="1" as="geometry">
            <mxPoint x="250" y="692" as="sourcePoint" />
            <mxPoint x="251" y="367" as="targetPoint" />
          </mxGeometry>
        </mxCell>
        <mxCell id="ceFJaeODxGJ1l_pFlYZ3-3" value="" style="endArrow=none;html=1;rounded=0;" edge="1" parent="1" source="ceFJaeODxGJ1l_pFlYZ3-21">
          <mxGeometry width="50" height="50" relative="1" as="geometry">
            <mxPoint x="401" y="668" as="sourcePoint" />
            <mxPoint x="398" y="108" as="targetPoint" />
          </mxGeometry>
        </mxCell>
        <mxCell id="ceFJaeODxGJ1l_pFlYZ3-4" value="" style="endArrow=none;html=1;rounded=0;" edge="1" parent="1" source="ceFJaeODxGJ1l_pFlYZ3-20">
          <mxGeometry width="50" height="50" relative="1" as="geometry">
            <mxPoint x="564" y="668" as="sourcePoint" />
            <mxPoint x="561" y="108" as="targetPoint" />
          </mxGeometry>
        </mxCell>
        <mxCell id="ceFJaeODxGJ1l_pFlYZ3-5" value="" style="endArrow=none;html=1;rounded=0;" edge="1" parent="1" source="ceFJaeODxGJ1l_pFlYZ3-54">
          <mxGeometry width="50" height="50" relative="1" as="geometry">
            <mxPoint x="718" y="301" as="sourcePoint" />
            <mxPoint x="715.5" y="147" as="targetPoint" />
          </mxGeometry>
        </mxCell>
        <mxCell id="ceFJaeODxGJ1l_pFlYZ3-6" value="Main" style="rounded=1;whiteSpace=wrap;html=1;" vertex="1" parent="1">
          <mxGeometry x="42" y="66" width="104" height="28" as="geometry" />
        </mxCell>
        <mxCell id="ceFJaeODxGJ1l_pFlYZ3-7" value="Release" style="rounded=1;whiteSpace=wrap;html=1;" vertex="1" parent="1">
          <mxGeometry x="202" y="326.5" width="104" height="28" as="geometry" />
        </mxCell>
        <mxCell id="ceFJaeODxGJ1l_pFlYZ3-8" value="Test" style="rounded=1;whiteSpace=wrap;html=1;" vertex="1" parent="1">
          <mxGeometry x="352" y="66" width="104" height="28" as="geometry" />
        </mxCell>
        <mxCell id="ceFJaeODxGJ1l_pFlYZ3-9" value="Develop" style="rounded=1;whiteSpace=wrap;html=1;" vertex="1" parent="1">
          <mxGeometry x="512" y="66" width="104" height="28" as="geometry" />
        </mxCell>
        <mxCell id="ceFJaeODxGJ1l_pFlYZ3-10" value="Feature/Bug 1" style="rounded=1;whiteSpace=wrap;html=1;" vertex="1" parent="1">
          <mxGeometry x="667" y="111" width="104" height="28" as="geometry" />
        </mxCell>
        <mxCell id="ceFJaeODxGJ1l_pFlYZ3-11" value="" style="endArrow=none;dashed=1;html=1;rounded=0;" edge="1" parent="1">
          <mxGeometry width="50" height="50" relative="1" as="geometry">
            <mxPoint x="94" y="149" as="sourcePoint" />
            <mxPoint x="717" y="147" as="targetPoint" />
          </mxGeometry>
        </mxCell>
        <mxCell id="ceFJaeODxGJ1l_pFlYZ3-13" value="" style="endArrow=none;html=1;rounded=0;" edge="1" parent="1" target="ceFJaeODxGJ1l_pFlYZ3-12">
          <mxGeometry width="50" height="50" relative="1" as="geometry">
            <mxPoint x="96" y="746" as="sourcePoint" />
            <mxPoint x="93" y="106" as="targetPoint" />
          </mxGeometry>
        </mxCell>
        <mxCell id="ceFJaeODxGJ1l_pFlYZ3-12" value="" style="ellipse;whiteSpace=wrap;html=1;aspect=fixed;fillColor=#f8cecc;strokeColor=#b85450;" vertex="1" parent="1">
          <mxGeometry x="87.5" y="142" width="13" height="13" as="geometry" />
        </mxCell>
        <mxCell id="ceFJaeODxGJ1l_pFlYZ3-14" value="&lt;b&gt;&lt;font style=&quot;font-size: 8px;&quot;&gt;MTP-1.1.0&lt;/font&gt;&lt;/b&gt;" style="shape=process;whiteSpace=wrap;html=1;backgroundOutline=1;" vertex="1" parent="1">
          <mxGeometry x="23" y="137" width="57" height="23" as="geometry" />
        </mxCell>
        <mxCell id="ceFJaeODxGJ1l_pFlYZ3-15" value="" style="ellipse;whiteSpace=wrap;html=1;aspect=fixed;fillColor=#f8cecc;strokeColor=#b85450;" vertex="1" parent="1">
          <mxGeometry x="712.5" y="301" width="13" height="13" as="geometry" />
        </mxCell>
        <mxCell id="ceFJaeODxGJ1l_pFlYZ3-19" value="" style="endArrow=none;dashed=1;html=1;dashPattern=1 3;strokeWidth=2;rounded=0;" edge="1" parent="1" source="ceFJaeODxGJ1l_pFlYZ3-20">
          <mxGeometry width="50" height="50" relative="1" as="geometry">
            <mxPoint x="400.5" y="308" as="sourcePoint" />
            <mxPoint x="712.5" y="308" as="targetPoint" />
          </mxGeometry>
        </mxCell>
        <mxCell id="ceFJaeODxGJ1l_pFlYZ3-22" value="" style="endArrow=none;html=1;rounded=0;" edge="1" parent="1" source="ceFJaeODxGJ1l_pFlYZ3-41" target="ceFJaeODxGJ1l_pFlYZ3-21">
          <mxGeometry width="50" height="50" relative="1" as="geometry">
            <mxPoint x="401" y="668" as="sourcePoint" />
            <mxPoint x="398" y="108" as="targetPoint" />
          </mxGeometry>
        </mxCell>
        <mxCell id="ceFJaeODxGJ1l_pFlYZ3-21" value="" style="ellipse;whiteSpace=wrap;html=1;aspect=fixed;fillColor=#f8cecc;strokeColor=#b85450;" vertex="1" parent="1">
          <mxGeometry x="394" y="301" width="13" height="13" as="geometry" />
        </mxCell>
        <mxCell id="ceFJaeODxGJ1l_pFlYZ3-27" value="" style="endArrow=none;html=1;rounded=0;" edge="1" parent="1" source="ceFJaeODxGJ1l_pFlYZ3-43" target="ceFJaeODxGJ1l_pFlYZ3-20">
          <mxGeometry width="50" height="50" relative="1" as="geometry">
            <mxPoint x="564" y="668" as="sourcePoint" />
            <mxPoint x="561" y="108" as="targetPoint" />
          </mxGeometry>
        </mxCell>
        <mxCell id="ceFJaeODxGJ1l_pFlYZ3-20" value="" style="ellipse;whiteSpace=wrap;html=1;aspect=fixed;fillColor=#f8cecc;strokeColor=#b85450;" vertex="1" parent="1">
          <mxGeometry x="554" y="301" width="13" height="13" as="geometry" />
        </mxCell>
        <mxCell id="ceFJaeODxGJ1l_pFlYZ3-29" value="" style="shape=image;html=1;verticalAlign=top;verticalLabelPosition=bottom;labelBackgroundColor=#ffffff;imageAspect=0;aspect=fixed;image=https://cdn0.iconfinder.com/data/icons/octicons/1024/git-pull-request-128.png" vertex="1" parent="1">
          <mxGeometry x="485" y="295" width="25" height="25" as="geometry" />
        </mxCell>
        <mxCell id="ceFJaeODxGJ1l_pFlYZ3-30" value="" style="shape=image;html=1;verticalAlign=top;verticalLabelPosition=bottom;labelBackgroundColor=#ffffff;imageAspect=0;aspect=fixed;image=https://cdn0.iconfinder.com/data/icons/octicons/1024/git-pull-request-128.png" vertex="1" parent="1">
          <mxGeometry x="631" y="278" width="23" height="23" as="geometry" />
        </mxCell>
        <mxCell id="ceFJaeODxGJ1l_pFlYZ3-31" value="" style="endArrow=none;dashed=1;html=1;dashPattern=1 3;strokeWidth=2;rounded=0;entryX=0;entryY=1;entryDx=0;entryDy=0;exitX=1;exitY=1;exitDx=0;exitDy=0;" edge="1" parent="1">
          <mxGeometry width="50" height="50" relative="1" as="geometry">
            <mxPoint x="406.9961940776981" y="313.9961940776982" as="sourcePoint" />
            <mxPoint x="716.3038059223016" y="313.9961940776983" as="targetPoint" />
            <Array as="points">
              <mxPoint x="513" y="326" />
              <mxPoint x="568" y="326" />
            </Array>
          </mxGeometry>
        </mxCell>
        <mxCell id="ceFJaeODxGJ1l_pFlYZ3-32" value="Tag" style="rhombus;whiteSpace=wrap;html=1;" vertex="1" parent="1">
          <mxGeometry x="731" y="282.5" width="54" height="50" as="geometry" />
        </mxCell>
        <mxCell id="ceFJaeODxGJ1l_pFlYZ3-33" value="" style="endArrow=none;html=1;rounded=0;" edge="1" parent="1" source="ceFJaeODxGJ1l_pFlYZ3-60">
          <mxGeometry width="50" height="50" relative="1" as="geometry">
            <mxPoint x="720.25" y="468" as="sourcePoint" />
            <mxPoint x="717.75" y="314" as="targetPoint" />
          </mxGeometry>
        </mxCell>
        <mxCell id="ceFJaeODxGJ1l_pFlYZ3-34" value="Tag" style="rhombus;whiteSpace=wrap;html=1;" vertex="1" parent="1">
          <mxGeometry x="731" y="438" width="54" height="50" as="geometry" />
        </mxCell>
        <mxCell id="ceFJaeODxGJ1l_pFlYZ3-36" value="" style="endArrow=none;html=1;rounded=0;" edge="1" parent="1" target="ceFJaeODxGJ1l_pFlYZ3-35">
          <mxGeometry width="50" height="50" relative="1" as="geometry">
            <mxPoint x="720.25" y="468" as="sourcePoint" />
            <mxPoint x="717.75" y="314" as="targetPoint" />
          </mxGeometry>
        </mxCell>
        <mxCell id="ceFJaeODxGJ1l_pFlYZ3-35" value="" style="ellipse;whiteSpace=wrap;html=1;aspect=fixed;fillColor=#f8cecc;strokeColor=#b85450;" vertex="1" parent="1">
          <mxGeometry x="715" y="461" width="13" height="13" as="geometry" />
        </mxCell>
        <mxCell id="ceFJaeODxGJ1l_pFlYZ3-37" value="" style="endArrow=none;dashed=1;html=1;dashPattern=1 3;strokeWidth=2;rounded=0;" edge="1" parent="1">
          <mxGeometry width="50" height="50" relative="1" as="geometry">
            <mxPoint x="563" y="469" as="sourcePoint" />
            <mxPoint x="712.5" y="469" as="targetPoint" />
          </mxGeometry>
        </mxCell>
        <mxCell id="ceFJaeODxGJ1l_pFlYZ3-38" value="" style="shape=image;html=1;verticalAlign=top;verticalLabelPosition=bottom;labelBackgroundColor=#ffffff;imageAspect=0;aspect=fixed;image=https://cdn0.iconfinder.com/data/icons/octicons/1024/git-pull-request-128.png" vertex="1" parent="1">
          <mxGeometry x="637" y="438" width="23" height="23" as="geometry" />
        </mxCell>
        <mxCell id="ceFJaeODxGJ1l_pFlYZ3-39" value="" style="endArrow=none;dashed=1;html=1;dashPattern=1 3;strokeWidth=2;rounded=0;entryX=0;entryY=1;entryDx=0;entryDy=0;exitX=1;exitY=1;exitDx=0;exitDy=0;" edge="1" parent="1">
          <mxGeometry width="50" height="50" relative="1" as="geometry">
            <mxPoint x="405.69619407769807" y="469.9961940776982" as="sourcePoint" />
            <mxPoint x="715.0038059223017" y="469.9961940776983" as="targetPoint" />
            <Array as="points">
              <mxPoint x="515" y="485" />
              <mxPoint x="619" y="485" />
            </Array>
          </mxGeometry>
        </mxCell>
        <mxCell id="ceFJaeODxGJ1l_pFlYZ3-40" value="" style="shape=image;html=1;verticalAlign=top;verticalLabelPosition=bottom;labelBackgroundColor=#ffffff;imageAspect=0;aspect=fixed;image=https://cdn0.iconfinder.com/data/icons/octicons/1024/git-pull-request-128.png" vertex="1" parent="1">
          <mxGeometry x="472" y="450.5" width="25" height="25" as="geometry" />
        </mxCell>
        <mxCell id="ceFJaeODxGJ1l_pFlYZ3-42" value="" style="endArrow=none;html=1;rounded=0;" edge="1" parent="1" source="ceFJaeODxGJ1l_pFlYZ3-88" target="ceFJaeODxGJ1l_pFlYZ3-41">
          <mxGeometry width="50" height="50" relative="1" as="geometry">
            <mxPoint x="401" y="696" as="sourcePoint" />
            <mxPoint x="401" y="314" as="targetPoint" />
          </mxGeometry>
        </mxCell>
        <mxCell id="ceFJaeODxGJ1l_pFlYZ3-41" value="" style="ellipse;whiteSpace=wrap;html=1;aspect=fixed;fillColor=#f8cecc;strokeColor=#b85450;" vertex="1" parent="1">
          <mxGeometry x="394" y="461" width="13" height="13" as="geometry" />
        </mxCell>
        <mxCell id="ceFJaeODxGJ1l_pFlYZ3-44" value="" style="endArrow=none;html=1;rounded=0;" edge="1" parent="1" target="ceFJaeODxGJ1l_pFlYZ3-43">
          <mxGeometry width="50" height="50" relative="1" as="geometry">
            <mxPoint x="564" y="697" as="sourcePoint" />
            <mxPoint x="561" y="314" as="targetPoint" />
          </mxGeometry>
        </mxCell>
        <mxCell id="ceFJaeODxGJ1l_pFlYZ3-43" value="" style="ellipse;whiteSpace=wrap;html=1;aspect=fixed;fillColor=#f8cecc;strokeColor=#b85450;" vertex="1" parent="1">
          <mxGeometry x="554" y="462.5" width="13" height="13" as="geometry" />
        </mxCell>
        <mxCell id="ceFJaeODxGJ1l_pFlYZ3-45" value="" style="endArrow=none;dashed=1;html=1;dashPattern=1 3;strokeWidth=2;rounded=0;entryX=0.5;entryY=1;entryDx=0;entryDy=0;" edge="1" parent="1" source="ceFJaeODxGJ1l_pFlYZ3-46" target="ceFJaeODxGJ1l_pFlYZ3-35">
          <mxGeometry width="50" height="50" relative="1" as="geometry">
            <mxPoint x="248" y="468" as="sourcePoint" />
            <mxPoint x="720.58" y="487.9999999999998" as="targetPoint" />
            <Array as="points">
              <mxPoint x="360" y="483" />
              <mxPoint x="462" y="490" />
              <mxPoint x="591" y="498" />
            </Array>
          </mxGeometry>
        </mxCell>
        <mxCell id="ceFJaeODxGJ1l_pFlYZ3-47" value="" style="endArrow=none;dashed=1;html=1;dashPattern=1 3;strokeWidth=2;rounded=0;entryX=0.5;entryY=1;entryDx=0;entryDy=0;" edge="1" parent="1" target="ceFJaeODxGJ1l_pFlYZ3-46">
          <mxGeometry width="50" height="50" relative="1" as="geometry">
            <mxPoint x="248" y="468" as="sourcePoint" />
            <mxPoint x="722" y="474" as="targetPoint" />
            <Array as="points" />
          </mxGeometry>
        </mxCell>
        <mxCell id="ceFJaeODxGJ1l_pFlYZ3-46" value="" style="ellipse;whiteSpace=wrap;html=1;aspect=fixed;fillColor=#f8cecc;strokeColor=#b85450;" vertex="1" parent="1">
          <mxGeometry x="242.5" y="459" width="13" height="13" as="geometry" />
        </mxCell>
        <mxCell id="ceFJaeODxGJ1l_pFlYZ3-49" value="" style="shape=image;html=1;verticalAlign=top;verticalLabelPosition=bottom;labelBackgroundColor=#ffffff;imageAspect=0;aspect=fixed;image=https://cdn3.iconfinder.com/data/icons/miscellaneous-80/60/check-128.png" vertex="1" parent="1">
          <mxGeometry x="253" y="441.75" width="20.5" height="20.5" as="geometry" />
        </mxCell>
        <mxCell id="ceFJaeODxGJ1l_pFlYZ3-50" value="" style="endArrow=none;html=1;rounded=0;" edge="1" parent="1" source="ceFJaeODxGJ1l_pFlYZ3-64">
          <mxGeometry width="50" height="50" relative="1" as="geometry">
            <mxPoint x="846" y="536" as="sourcePoint" />
            <mxPoint x="841" y="147" as="targetPoint" />
          </mxGeometry>
        </mxCell>
        <mxCell id="ceFJaeODxGJ1l_pFlYZ3-51" value="Feature/Bug 2" style="rounded=1;whiteSpace=wrap;html=1;" vertex="1" parent="1">
          <mxGeometry x="795.5" y="111" width="104" height="28" as="geometry" />
        </mxCell>
        <mxCell id="ceFJaeODxGJ1l_pFlYZ3-53" value="Tag" style="rhombus;whiteSpace=wrap;html=1;" vertex="1" parent="1">
          <mxGeometry x="850" y="569" width="54" height="50" as="geometry" />
        </mxCell>
        <mxCell id="ceFJaeODxGJ1l_pFlYZ3-55" value="" style="endArrow=none;html=1;rounded=0;" edge="1" parent="1" source="ceFJaeODxGJ1l_pFlYZ3-56" target="ceFJaeODxGJ1l_pFlYZ3-54">
          <mxGeometry width="50" height="50" relative="1" as="geometry">
            <mxPoint x="718" y="301" as="sourcePoint" />
            <mxPoint x="715.5" y="147" as="targetPoint" />
          </mxGeometry>
        </mxCell>
        <mxCell id="ceFJaeODxGJ1l_pFlYZ3-54" value="" style="shape=image;html=1;verticalAlign=top;verticalLabelPosition=bottom;labelBackgroundColor=#ffffff;imageAspect=0;aspect=fixed;image=https://cdn1.iconfinder.com/data/icons/media-player-long-shadow/50/Favourite-128.png" vertex="1" parent="1">
          <mxGeometry x="707" y="155" width="16" height="16" as="geometry" />
        </mxCell>
        <mxCell id="ceFJaeODxGJ1l_pFlYZ3-57" value="" style="endArrow=none;html=1;rounded=0;" edge="1" parent="1" source="ceFJaeODxGJ1l_pFlYZ3-58" target="ceFJaeODxGJ1l_pFlYZ3-56">
          <mxGeometry width="50" height="50" relative="1" as="geometry">
            <mxPoint x="718" y="301" as="sourcePoint" />
            <mxPoint x="715" y="171" as="targetPoint" />
          </mxGeometry>
        </mxCell>
        <mxCell id="ceFJaeODxGJ1l_pFlYZ3-56" value="" style="shape=image;html=1;verticalAlign=top;verticalLabelPosition=bottom;labelBackgroundColor=#ffffff;imageAspect=0;aspect=fixed;image=https://cdn1.iconfinder.com/data/icons/media-player-long-shadow/50/Favourite-128.png" vertex="1" parent="1">
          <mxGeometry x="707" y="178" width="16" height="16" as="geometry" />
        </mxCell>
        <mxCell id="ceFJaeODxGJ1l_pFlYZ3-59" value="" style="endArrow=none;html=1;rounded=0;" edge="1" parent="1" target="ceFJaeODxGJ1l_pFlYZ3-58">
          <mxGeometry width="50" height="50" relative="1" as="geometry">
            <mxPoint x="718" y="301" as="sourcePoint" />
            <mxPoint x="715" y="194" as="targetPoint" />
          </mxGeometry>
        </mxCell>
        <mxCell id="ceFJaeODxGJ1l_pFlYZ3-58" value="" style="shape=image;html=1;verticalAlign=top;verticalLabelPosition=bottom;labelBackgroundColor=#ffffff;imageAspect=0;aspect=fixed;image=https://cdn1.iconfinder.com/data/icons/media-player-long-shadow/50/Favourite-128.png" vertex="1" parent="1">
          <mxGeometry x="707" y="239" width="16" height="16" as="geometry" />
        </mxCell>
        <mxCell id="ceFJaeODxGJ1l_pFlYZ3-61" value="" style="endArrow=none;html=1;rounded=0;" edge="1" parent="1" source="ceFJaeODxGJ1l_pFlYZ3-62" target="ceFJaeODxGJ1l_pFlYZ3-60">
          <mxGeometry width="50" height="50" relative="1" as="geometry">
            <mxPoint x="721" y="461" as="sourcePoint" />
            <mxPoint x="717.75" y="314" as="targetPoint" />
          </mxGeometry>
        </mxCell>
        <mxCell id="ceFJaeODxGJ1l_pFlYZ3-60" value="" style="shape=image;html=1;verticalAlign=top;verticalLabelPosition=bottom;labelBackgroundColor=#ffffff;imageAspect=0;aspect=fixed;image=https://cdn1.iconfinder.com/data/icons/media-player-long-shadow/50/Favourite-128.png" vertex="1" parent="1">
          <mxGeometry x="712.5" y="346" width="16" height="16" as="geometry" />
        </mxCell>
        <mxCell id="ceFJaeODxGJ1l_pFlYZ3-63" value="" style="endArrow=none;html=1;rounded=0;" edge="1" parent="1" source="ceFJaeODxGJ1l_pFlYZ3-35" target="ceFJaeODxGJ1l_pFlYZ3-62">
          <mxGeometry width="50" height="50" relative="1" as="geometry">
            <mxPoint x="721" y="461" as="sourcePoint" />
            <mxPoint x="721" y="362" as="targetPoint" />
          </mxGeometry>
        </mxCell>
        <mxCell id="ceFJaeODxGJ1l_pFlYZ3-62" value="" style="shape=image;html=1;verticalAlign=top;verticalLabelPosition=bottom;labelBackgroundColor=#ffffff;imageAspect=0;aspect=fixed;image=https://cdn1.iconfinder.com/data/icons/media-player-long-shadow/50/Favourite-128.png" vertex="1" parent="1">
          <mxGeometry x="713.5" y="431.5" width="16" height="16" as="geometry" />
        </mxCell>
        <mxCell id="ceFJaeODxGJ1l_pFlYZ3-65" value="" style="endArrow=none;html=1;rounded=0;" edge="1" parent="1" source="ceFJaeODxGJ1l_pFlYZ3-66" target="ceFJaeODxGJ1l_pFlYZ3-64">
          <mxGeometry width="50" height="50" relative="1" as="geometry">
            <mxPoint x="846" y="536" as="sourcePoint" />
            <mxPoint x="841" y="147" as="targetPoint" />
          </mxGeometry>
        </mxCell>
        <mxCell id="ceFJaeODxGJ1l_pFlYZ3-64" value="" style="shape=image;html=1;verticalAlign=top;verticalLabelPosition=bottom;labelBackgroundColor=#ffffff;imageAspect=0;aspect=fixed;image=https://cdn1.iconfinder.com/data/icons/media-player-long-shadow/50/Favourite-128.png" vertex="1" parent="1">
          <mxGeometry x="834" y="155" width="16" height="16" as="geometry" />
        </mxCell>
        <mxCell id="ceFJaeODxGJ1l_pFlYZ3-67" value="" style="endArrow=none;html=1;rounded=0;" edge="1" parent="1" source="ceFJaeODxGJ1l_pFlYZ3-72" target="ceFJaeODxGJ1l_pFlYZ3-66">
          <mxGeometry width="50" height="50" relative="1" as="geometry">
            <mxPoint x="846" y="536" as="sourcePoint" />
            <mxPoint x="842" y="171" as="targetPoint" />
          </mxGeometry>
        </mxCell>
        <mxCell id="ceFJaeODxGJ1l_pFlYZ3-66" value="" style="shape=image;html=1;verticalAlign=top;verticalLabelPosition=bottom;labelBackgroundColor=#ffffff;imageAspect=0;aspect=fixed;image=https://cdn1.iconfinder.com/data/icons/media-player-long-shadow/50/Favourite-128.png" vertex="1" parent="1">
          <mxGeometry x="834" y="178" width="16" height="16" as="geometry" />
        </mxCell>
        <mxCell id="ceFJaeODxGJ1l_pFlYZ3-73" value="" style="endArrow=none;html=1;rounded=0;" edge="1" parent="1" source="ceFJaeODxGJ1l_pFlYZ3-71" target="ceFJaeODxGJ1l_pFlYZ3-72">
          <mxGeometry width="50" height="50" relative="1" as="geometry">
            <mxPoint x="846" y="536" as="sourcePoint" />
            <mxPoint x="842" y="194" as="targetPoint" />
          </mxGeometry>
        </mxCell>
        <mxCell id="ceFJaeODxGJ1l_pFlYZ3-72" value="" style="shape=image;html=1;verticalAlign=top;verticalLabelPosition=bottom;labelBackgroundColor=#ffffff;imageAspect=0;aspect=fixed;image=https://cdn1.iconfinder.com/data/icons/media-player-long-shadow/50/Favourite-128.png" vertex="1" parent="1">
          <mxGeometry x="834" y="234" width="16" height="16" as="geometry" />
        </mxCell>
        <mxCell id="ceFJaeODxGJ1l_pFlYZ3-75" value="" style="endArrow=none;html=1;rounded=0;" edge="1" parent="1" source="ceFJaeODxGJ1l_pFlYZ3-70" target="ceFJaeODxGJ1l_pFlYZ3-71">
          <mxGeometry width="50" height="50" relative="1" as="geometry">
            <mxPoint x="846" y="536" as="sourcePoint" />
            <mxPoint x="842" y="250" as="targetPoint" />
          </mxGeometry>
        </mxCell>
        <mxCell id="ceFJaeODxGJ1l_pFlYZ3-71" value="" style="shape=image;html=1;verticalAlign=top;verticalLabelPosition=bottom;labelBackgroundColor=#ffffff;imageAspect=0;aspect=fixed;image=https://cdn1.iconfinder.com/data/icons/media-player-long-shadow/50/Favourite-128.png;direction=south;" vertex="1" parent="1">
          <mxGeometry x="834" y="306" width="16" height="16" as="geometry" />
        </mxCell>
        <mxCell id="ceFJaeODxGJ1l_pFlYZ3-78" value="" style="endArrow=none;html=1;rounded=0;" edge="1" parent="1" source="ceFJaeODxGJ1l_pFlYZ3-69" target="ceFJaeODxGJ1l_pFlYZ3-70">
          <mxGeometry width="50" height="50" relative="1" as="geometry">
            <mxPoint x="846" y="536" as="sourcePoint" />
            <mxPoint x="842" y="322" as="targetPoint" />
          </mxGeometry>
        </mxCell>
        <mxCell id="ceFJaeODxGJ1l_pFlYZ3-70" value="" style="shape=image;html=1;verticalAlign=top;verticalLabelPosition=bottom;labelBackgroundColor=#ffffff;imageAspect=0;aspect=fixed;image=https://cdn1.iconfinder.com/data/icons/media-player-long-shadow/50/Favourite-128.png" vertex="1" parent="1">
          <mxGeometry x="834" y="374" width="16" height="16" as="geometry" />
        </mxCell>
        <mxCell id="ceFJaeODxGJ1l_pFlYZ3-79" value="" style="endArrow=none;html=1;rounded=0;" edge="1" parent="1" source="ceFJaeODxGJ1l_pFlYZ3-68" target="ceFJaeODxGJ1l_pFlYZ3-69">
          <mxGeometry width="50" height="50" relative="1" as="geometry">
            <mxPoint x="842" y="533" as="sourcePoint" />
            <mxPoint x="842" y="390" as="targetPoint" />
          </mxGeometry>
        </mxCell>
        <mxCell id="ceFJaeODxGJ1l_pFlYZ3-69" value="" style="shape=image;html=1;verticalAlign=top;verticalLabelPosition=bottom;labelBackgroundColor=#ffffff;imageAspect=0;aspect=fixed;image=https://cdn1.iconfinder.com/data/icons/media-player-long-shadow/50/Favourite-128.png" vertex="1" parent="1">
          <mxGeometry x="834" y="399" width="16" height="16" as="geometry" />
        </mxCell>
        <mxCell id="ceFJaeODxGJ1l_pFlYZ3-82" value="" style="endArrow=none;html=1;rounded=0;" edge="1" parent="1" target="ceFJaeODxGJ1l_pFlYZ3-68">
          <mxGeometry width="50" height="50" relative="1" as="geometry">
            <mxPoint x="842" y="593" as="sourcePoint" />
            <mxPoint x="842" y="415" as="targetPoint" />
          </mxGeometry>
        </mxCell>
        <mxCell id="ceFJaeODxGJ1l_pFlYZ3-68" value="" style="shape=image;html=1;verticalAlign=top;verticalLabelPosition=bottom;labelBackgroundColor=#ffffff;imageAspect=0;aspect=fixed;image=https://cdn1.iconfinder.com/data/icons/media-player-long-shadow/50/Favourite-128.png" vertex="1" parent="1">
          <mxGeometry x="834" y="487" width="16" height="16" as="geometry" />
        </mxCell>
        <mxCell id="ceFJaeODxGJ1l_pFlYZ3-83" value="" style="endArrow=none;dashed=1;html=1;dashPattern=1 3;strokeWidth=2;rounded=0;" edge="1" parent="1" source="ceFJaeODxGJ1l_pFlYZ3-52">
          <mxGeometry width="50" height="50" relative="1" as="geometry">
            <mxPoint x="561.5" y="606" as="sourcePoint" />
            <mxPoint x="840" y="604" as="targetPoint" />
          </mxGeometry>
        </mxCell>
        <mxCell id="ceFJaeODxGJ1l_pFlYZ3-85" value="" style="endArrow=none;dashed=1;html=1;dashPattern=1 3;strokeWidth=2;rounded=0;" edge="1" parent="1" source="ceFJaeODxGJ1l_pFlYZ3-86" target="ceFJaeODxGJ1l_pFlYZ3-52">
          <mxGeometry width="50" height="50" relative="1" as="geometry">
            <mxPoint x="561.5" y="606" as="sourcePoint" />
            <mxPoint x="840" y="604" as="targetPoint" />
          </mxGeometry>
        </mxCell>
        <mxCell id="ceFJaeODxGJ1l_pFlYZ3-52" value="" style="ellipse;whiteSpace=wrap;html=1;aspect=fixed;fillColor=#f8cecc;strokeColor=#b85450;direction=south;" vertex="1" parent="1">
          <mxGeometry x="834" y="597" width="13" height="13" as="geometry" />
        </mxCell>
        <mxCell id="ceFJaeODxGJ1l_pFlYZ3-87" value="" style="endArrow=none;dashed=1;html=1;dashPattern=1 3;strokeWidth=2;rounded=0;" edge="1" parent="1" target="ceFJaeODxGJ1l_pFlYZ3-86">
          <mxGeometry width="50" height="50" relative="1" as="geometry">
            <mxPoint x="561.5" y="606" as="sourcePoint" />
            <mxPoint x="834" y="604" as="targetPoint" />
          </mxGeometry>
        </mxCell>
        <mxCell id="ceFJaeODxGJ1l_pFlYZ3-86" value="" style="ellipse;whiteSpace=wrap;html=1;aspect=fixed;fillColor=#f8cecc;strokeColor=#b85450;" vertex="1" parent="1">
          <mxGeometry x="557.5" y="600" width="13" height="13" as="geometry" />
        </mxCell>
        <mxCell id="ceFJaeODxGJ1l_pFlYZ3-89" value="" style="endArrow=none;html=1;rounded=0;" edge="1" parent="1" target="ceFJaeODxGJ1l_pFlYZ3-88">
          <mxGeometry width="50" height="50" relative="1" as="geometry">
            <mxPoint x="401" y="696" as="sourcePoint" />
            <mxPoint x="401" y="474" as="targetPoint" />
          </mxGeometry>
        </mxCell>
        <mxCell id="ceFJaeODxGJ1l_pFlYZ3-88" value="" style="ellipse;whiteSpace=wrap;html=1;aspect=fixed;fillColor=#f8cecc;strokeColor=#b85450;" vertex="1" parent="1">
          <mxGeometry x="394" y="600" width="13" height="13" as="geometry" />
        </mxCell>
        <mxCell id="ceFJaeODxGJ1l_pFlYZ3-90" value="" style="endArrow=none;dashed=1;html=1;dashPattern=1 3;strokeWidth=2;rounded=0;entryX=1;entryY=1;entryDx=0;entryDy=0;" edge="1" parent="1" target="ceFJaeODxGJ1l_pFlYZ3-52">
          <mxGeometry width="50" height="50" relative="1" as="geometry">
            <mxPoint x="407" y="607.5" as="sourcePoint" />
            <mxPoint x="671" y="605.5" as="targetPoint" />
            <Array as="points">
              <mxPoint x="513" y="619" />
              <mxPoint x="620" y="619" />
            </Array>
          </mxGeometry>
        </mxCell>
        <mxCell id="ceFJaeODxGJ1l_pFlYZ3-91" value="" style="shape=image;html=1;verticalAlign=top;verticalLabelPosition=bottom;labelBackgroundColor=#ffffff;imageAspect=0;aspect=fixed;image=https://cdn0.iconfinder.com/data/icons/octicons/1024/git-pull-request-128.png" vertex="1" parent="1">
          <mxGeometry x="654" y="574" width="23" height="23" as="geometry" />
        </mxCell>
        <mxCell id="ceFJaeODxGJ1l_pFlYZ3-92" value="" style="shape=image;html=1;verticalAlign=top;verticalLabelPosition=bottom;labelBackgroundColor=#ffffff;imageAspect=0;aspect=fixed;image=https://cdn0.iconfinder.com/data/icons/octicons/1024/git-pull-request-128.png" vertex="1" parent="1">
          <mxGeometry x="472" y="575" width="25" height="25" as="geometry" />
        </mxCell>
        <mxCell id="ceFJaeODxGJ1l_pFlYZ3-94" value="" style="endArrow=none;html=1;rounded=0;" edge="1" parent="1" target="ceFJaeODxGJ1l_pFlYZ3-93">
          <mxGeometry width="50" height="50" relative="1" as="geometry">
            <mxPoint x="248.99999999999977" y="687" as="sourcePoint" />
            <mxPoint x="247" y="107" as="targetPoint" />
          </mxGeometry>
        </mxCell>
        <mxCell id="ceFJaeODxGJ1l_pFlYZ3-93" value="" style="ellipse;whiteSpace=wrap;html=1;aspect=fixed;fillColor=#f8cecc;strokeColor=#b85450;" vertex="1" parent="1">
          <mxGeometry x="242.5" y="600" width="13" height="13" as="geometry" />
        </mxCell>
        <mxCell id="ceFJaeODxGJ1l_pFlYZ3-95" value="" style="shadow=0;dashed=0;html=1;strokeColor=none;fillColor=#EF8F21;labelPosition=center;verticalLabelPosition=bottom;verticalAlign=top;align=center;outlineConnect=0;shape=mxgraph.veeam.failed;" vertex="1" parent="1">
          <mxGeometry x="404.25" y="320" width="20" height="19.5" as="geometry" />
        </mxCell>
        <mxCell id="ceFJaeODxGJ1l_pFlYZ3-96" value="" style="shape=image;html=1;verticalAlign=top;verticalLabelPosition=bottom;labelBackgroundColor=#ffffff;imageAspect=0;aspect=fixed;image=https://cdn3.iconfinder.com/data/icons/miscellaneous-80/60/check-128.png" vertex="1" parent="1">
          <mxGeometry x="565" y="440" width="20" height="20" as="geometry" />
        </mxCell>
        <mxCell id="ceFJaeODxGJ1l_pFlYZ3-97" value="" style="shape=image;html=1;verticalAlign=top;verticalLabelPosition=bottom;labelBackgroundColor=#ffffff;imageAspect=0;aspect=fixed;image=https://cdn3.iconfinder.com/data/icons/miscellaneous-80/60/check-128.png" vertex="1" parent="1">
          <mxGeometry x="404.25" y="441.75" width="20.75" height="20.75" as="geometry" />
        </mxCell>
        <mxCell id="ceFJaeODxGJ1l_pFlYZ3-98" value="" style="shape=image;html=1;verticalAlign=top;verticalLabelPosition=bottom;labelBackgroundColor=#ffffff;imageAspect=0;aspect=fixed;image=https://cdn3.iconfinder.com/data/icons/miscellaneous-80/60/check-128.png" vertex="1" parent="1">
          <mxGeometry x="564" y="330" width="21" height="21" as="geometry" />
        </mxCell>
        <mxCell id="ceFJaeODxGJ1l_pFlYZ3-99" value="" style="endArrow=none;dashed=1;html=1;dashPattern=1 3;strokeWidth=2;rounded=0;" edge="1" parent="1">
          <mxGeometry width="50" height="50" relative="1" as="geometry">
            <mxPoint x="255.5" y="610" as="sourcePoint" />
            <mxPoint x="837" y="611" as="targetPoint" />
            <Array as="points">
              <mxPoint x="361.5" y="621.5" />
              <mxPoint x="469" y="630" />
              <mxPoint x="657" y="630" />
            </Array>
          </mxGeometry>
        </mxCell>
        <mxCell id="ceFJaeODxGJ1l_pFlYZ3-100" value="" style="shape=image;html=1;verticalAlign=top;verticalLabelPosition=bottom;labelBackgroundColor=#ffffff;imageAspect=0;aspect=fixed;image=https://cdn3.iconfinder.com/data/icons/miscellaneous-80/60/check-128.png" vertex="1" parent="1">
          <mxGeometry x="253.75" y="581" width="19" height="19" as="geometry" />
        </mxCell>
        <mxCell id="ceFJaeODxGJ1l_pFlYZ3-101" value="" style="shape=image;html=1;verticalAlign=top;verticalLabelPosition=bottom;labelBackgroundColor=#ffffff;imageAspect=0;aspect=fixed;image=https://cdn3.iconfinder.com/data/icons/miscellaneous-80/60/check-128.png" vertex="1" parent="1">
          <mxGeometry x="570.5" y="581" width="19" height="19" as="geometry" />
        </mxCell>
        <mxCell id="ceFJaeODxGJ1l_pFlYZ3-102" value="" style="shape=image;html=1;verticalAlign=top;verticalLabelPosition=bottom;labelBackgroundColor=#ffffff;imageAspect=0;aspect=fixed;image=https://cdn3.iconfinder.com/data/icons/miscellaneous-80/60/check-128.png" vertex="1" parent="1">
          <mxGeometry x="407" y="584.5" width="19" height="19" as="geometry" />
        </mxCell>
        <mxCell id="ceFJaeODxGJ1l_pFlYZ3-104" value="" style="endArrow=none;html=1;rounded=0;" edge="1" parent="1" source="ceFJaeODxGJ1l_pFlYZ3-106">
          <mxGeometry width="50" height="50" relative="1" as="geometry">
            <mxPoint x="250" y="692" as="sourcePoint" />
            <mxPoint x="248.99999999999977" y="687" as="targetPoint" />
          </mxGeometry>
        </mxCell>
        <mxCell id="ceFJaeODxGJ1l_pFlYZ3-105" value="Tag" style="rhombus;whiteSpace=wrap;html=1;" vertex="1" parent="1">
          <mxGeometry x="260" y="658" width="54" height="50" as="geometry" />
        </mxCell>
        <mxCell id="ceFJaeODxGJ1l_pFlYZ3-107" value="" style="endArrow=none;html=1;rounded=0;" edge="1" parent="1" target="ceFJaeODxGJ1l_pFlYZ3-106">
          <mxGeometry width="50" height="50" relative="1" as="geometry">
            <mxPoint x="250" y="692" as="sourcePoint" />
            <mxPoint x="248.99999999999977" y="687" as="targetPoint" />
          </mxGeometry>
        </mxCell>
        <mxCell id="ceFJaeODxGJ1l_pFlYZ3-108" style="edgeStyle=orthogonalEdgeStyle;rounded=0;orthogonalLoop=1;jettySize=auto;html=1;" edge="1" parent="1" source="ceFJaeODxGJ1l_pFlYZ3-106">
          <mxGeometry relative="1" as="geometry">
            <mxPoint x="94.44444444444434" y="688.4999999999998" as="targetPoint" />
          </mxGeometry>
        </mxCell>
        <mxCell id="ceFJaeODxGJ1l_pFlYZ3-106" value="" style="ellipse;whiteSpace=wrap;html=1;aspect=fixed;fillColor=#f8cecc;strokeColor=#b85450;" vertex="1" parent="1">
          <mxGeometry x="240.75" y="682" width="13" height="13" as="geometry" />
        </mxCell>
        <mxCell id="ceFJaeODxGJ1l_pFlYZ3-109" value="&lt;b&gt;&lt;font style=&quot;font-size: 8px;&quot;&gt;MTP-1.2.0&lt;/font&gt;&lt;/b&gt;" style="shape=process;whiteSpace=wrap;html=1;backgroundOutline=1;" vertex="1" parent="1">
          <mxGeometry x="30.5" y="671.5" width="57" height="23" as="geometry" />
        </mxCell>
        <mxCell id="ceFJaeODxGJ1l_pFlYZ3-110" value="" style="endArrow=none;dashed=1;html=1;dashPattern=1 3;strokeWidth=2;rounded=0;" edge="1" parent="1">
          <mxGeometry width="50" height="50" relative="1" as="geometry">
            <mxPoint x="96" y="368" as="sourcePoint" />
            <mxPoint x="251" y="368" as="targetPoint" />
          </mxGeometry>
        </mxCell>
      </root>
    </mxGraphModel>
  </diagram>
</mxfile>
